<?xml version="1.0" encoding="UTF-8"?>
<svg xmlns="http://www.w3.org/2000/svg" xmlns:xlink="http://www.w3.org/1999/xlink" width="829.95pt" height="380.46pt" viewBox="0 0 829.95 380.46" version="1.1">
<defs>
<clipPath id="clip1">
  <path d="M 686 336 L 731 336 L 731 380.460938 L 686 380.460938 Z M 686 336 "/>
</clipPath>
<clipPath id="clip2">
  <path d="M 418 0 L 829.949219 0 L 829.949219 365 L 418 365 Z M 418 0 "/>
</clipPath>
<clipPath id="clip3">
  <path d="M 755 336 L 800 336 L 800 380.460938 L 755 380.460938 Z M 755 336 "/>
</clipPath>
</defs>
<g id="surface1">
<path style=" stroke:none;fill-rule:nonzero;fill:rgb(13.299561%,11.799622%,12.199402%);fill-opacity:1;" d="M 542.253906 148.21875 C 542.253906 222.496094 481.523438 282.710938 406.609375 282.710938 C 331.695313 282.710938 270.964844 222.496094 270.964844 148.21875 C 270.964844 73.9375 331.695313 13.722656 406.609375 13.722656 C 481.523438 13.722656 542.253906 73.9375 542.253906 148.21875 "/>
<path style=" stroke:none;fill-rule:nonzero;fill:rgb(100%,100%,100%);fill-opacity:1;" d="M 489.636719 147.433594 C 489.636719 196.441406 452.433594 236.171875 406.546875 236.171875 C 360.65625 236.171875 323.453125 196.441406 323.453125 147.433594 C 323.453125 98.429688 360.65625 58.699219 406.546875 58.699219 C 452.433594 58.699219 489.636719 98.429688 489.636719 147.433594 "/>
<path style=" stroke:none;fill-rule:nonzero;fill:rgb(14.498901%,12.89978%,13.299561%);fill-opacity:1;" d="M 421.160156 349.980469 C 421.160156 357.472656 415.035156 363.542969 407.480469 363.542969 C 399.925781 363.542969 393.800781 357.472656 393.800781 349.980469 C 393.800781 342.488281 399.925781 336.417969 407.480469 336.417969 C 415.035156 336.417969 421.160156 342.488281 421.160156 349.980469 "/>
<path style=" stroke:none;fill-rule:nonzero;fill:rgb(100%,100%,100%);fill-opacity:1;" d="M 415.855469 349.902344 C 415.855469 354.84375 412.105469 358.851563 407.476563 358.851563 C 402.847656 358.851563 399.09375 354.84375 399.09375 349.902344 C 399.09375 344.957031 402.847656 340.953125 407.476563 340.953125 C 412.105469 340.953125 415.855469 344.957031 415.855469 349.902344 "/>
<g clip-path="url(#clip1)" clip-rule="nonzero">
<path style=" stroke:none;fill-rule:nonzero;fill:rgb(14.498901%,12.89978%,13.299561%);fill-opacity:1;" d="M 730.988281 358.097656 C 730.988281 370.289063 721.023438 380.175781 708.722656 380.175781 C 696.425781 380.175781 686.460938 370.289063 686.460938 358.097656 C 686.460938 345.902344 696.425781 336.019531 708.722656 336.019531 C 721.023438 336.019531 730.988281 345.902344 730.988281 358.097656 "/>
</g>
<path style=" stroke:none;fill-rule:nonzero;fill:rgb(100%,100%,100%);fill-opacity:1;" d="M 722.355469 357.96875 C 722.355469 366.011719 716.246094 372.535156 708.714844 372.535156 C 701.183594 372.535156 695.074219 366.011719 695.074219 357.96875 C 695.074219 349.925781 701.183594 343.402344 708.714844 343.402344 C 716.246094 343.402344 722.355469 349.925781 722.355469 357.96875 "/>
<path style=" stroke:none;fill-rule:nonzero;fill:rgb(13.299561%,11.799622%,12.199402%);fill-opacity:1;" d="M 296.328125 282.714844 L 198.933594 282.714844 L 203.195313 272.363281 C 203.195313 272.363281 209.28125 262.015625 201.976563 240.710938 L 152.058594 116.53125 L 130.753906 172.53125 L 158.757813 173.140625 L 177.628906 217.578125 L 111.886719 219.402344 C 111.886719 219.402344 91.796875 259.578125 104.578125 282.714844 L 24.835938 282.714844 C 24.835938 282.714844 57.097656 234.621094 60.753906 220.621094 L 60.753906 215.144531 L 41.273438 174.96875 L 79.621094 174.359375 L 149.015625 16.699219 C 149.015625 16.699219 153.277344 10.003906 155.714844 16.699219 L 248.847656 219.402344 C 248.847656 219.402344 266.5 272.972656 296.328125 282.714844 "/>
<path style="fill:none;stroke-width:50;stroke-linecap:butt;stroke-linejoin:miter;stroke:rgb(13.299561%,11.799622%,12.199402%);stroke-opacity:1;stroke-miterlimit:10;" d="M 753.59375 2188.857812 L 1435.390625 3722.842187 C 1435.390625 3722.842187 1551.054688 3850.654687 1642.34375 3722.842187 L 2676.132813 1467.139062 C 2676.132813 1467.139062 2875.507813 1179.678125 3117.421875 972.334375 C 3189.960938 910.107812 3195.234375 906.123437 3226.054688 896.709375 L 1745.859375 886.1625 C 1745.859375 886.1625 2056.289063 1044.44375 1934.53125 1379.248437 L 1867.578125 1494.873437 L 1185.78125 1507.060937 C 1185.78125 1507.060937 917.96875 1087.021875 1216.25 886.1625 L 53.59375 886.1625 L 193.59375 1053.19375 C 193.59375 1053.19375 467.382813 1430.85 510.117188 1598.389062 L 284.882813 2158.428125 L 729.257813 2152.334375 Z M 753.59375 2188.857812 " transform="matrix(0.1,0,0,-0.1,0,380.46)"/>
<path style=" stroke:none;fill-rule:nonzero;fill:rgb(14.498901%,12.89978%,13.299561%);fill-opacity:1;" d="M 143.539063 163.402344 L 152.0625 144.53125 L 160.582031 163.402344 "/>
<path style="fill:none;stroke-width:20;stroke-linecap:butt;stroke-linejoin:miter;stroke:rgb(100%,100%,100%);stroke-opacity:1;stroke-miterlimit:10;" d="M 1435.390625 2170.576562 L 1520.625 2359.2875 L 1605.820313 2170.576562 Z M 1435.390625 2170.576562 " transform="matrix(0.1,0,0,-0.1,0,380.46)"/>
<path style=" stroke:none;fill-rule:nonzero;fill:rgb(14.498901%,12.89978%,13.299561%);fill-opacity:1;" d="M 442.324219 148.21875 C 442.324219 167.71875 426.519531 183.523438 407.019531 183.523438 C 387.519531 183.523438 371.714844 167.71875 371.714844 148.21875 C 371.714844 128.71875 387.519531 112.910156 407.019531 112.910156 C 426.519531 112.910156 442.324219 128.71875 442.324219 148.21875 "/>
<path style="fill:none;stroke-width:40;stroke-linecap:butt;stroke-linejoin:miter;stroke:rgb(0.799561%,1.199341%,1.199341%);stroke-opacity:1;stroke-miterlimit:10;" d="M 4511.914063 2318.896875 C 4511.914063 2071.7875 4311.601563 1871.435937 4064.492188 1871.435937 C 3817.382813 1871.435937 3617.109375 2071.7875 3617.109375 2318.896875 C 3617.109375 2565.967187 3817.382813 2766.279687 4064.492188 2766.279687 C 4311.601563 2766.279687 4511.914063 2565.967187 4511.914063 2318.896875 Z M 4511.914063 2318.896875 " transform="matrix(0.1,0,0,-0.1,0,380.46)"/>
<path style="fill:none;stroke-width:40;stroke-linecap:butt;stroke-linejoin:miter;stroke:rgb(14.498901%,12.89978%,13.299561%);stroke-opacity:1;stroke-miterlimit:10;" d="M 4792.265625 2334.13125 C 4792.265625 1898.740625 4467.890625 1545.810937 4067.851563 1545.810937 C 3667.8125 1545.810937 3343.476563 1898.740625 3343.476563 2334.13125 C 3343.476563 2769.482812 3667.8125 3122.4125 4067.851563 3122.4125 C 4467.890625 3122.4125 4792.265625 2769.482812 4792.265625 2334.13125 Z M 4792.265625 2334.13125 " transform="matrix(0.1,0,0,-0.1,0,380.46)"/>
<path style="fill:none;stroke-width:50;stroke-linecap:butt;stroke-linejoin:miter;stroke:rgb(13.299561%,11.799622%,12.199402%);stroke-opacity:1;stroke-miterlimit:10;" d="M 5501.679688 2319.795312 C 5501.679688 1528.0375 4855.742188 886.201562 4058.90625 886.201562 C 3262.109375 886.201562 2616.132813 1528.0375 2616.132813 2319.795312 C 2616.132813 3111.553125 3262.109375 3753.428125 4058.90625 3753.428125 C 4855.742188 3753.428125 5501.679688 3111.553125 5501.679688 2319.795312 Z M 5501.679688 2319.795312 " transform="matrix(0.1,0,0,-0.1,0,380.46)"/>
<path style=" stroke:none;fill-rule:nonzero;fill:rgb(14.498901%,12.89978%,13.299561%);fill-opacity:1;" d="M 757.742188 70.875 C 757.742188 70.875 780.265625 21.566406 791.832031 17.308594 L 791.832031 13.722656 L 706.003906 13.722656 C 706.003906 13.722656 713.914063 22.785156 715.742188 25.828125 C 715.742188 25.828125 714.523438 38.003906 712.699219 45.917969 L 671.914063 143.316406 C 671.914063 143.316406 667.652344 148.792969 671.914063 154.878906 C 671.914063 154.878906 696.261719 206.011719 696.871094 213.925781 C 696.871094 213.925781 756.011719 74.570313 757.742188 70.875 "/>
<path style=" stroke:none;fill-rule:nonzero;fill:rgb(13.299561%,11.799622%,12.199402%);fill-opacity:1;" d="M 688.347656 228.535156 L 670.019531 275.140625 C 670.019531 275.140625 663.390625 290.699219 656.085938 275.140625 C 656.085938 275.140625 559.296875 58.09375 554.429688 52.613281 C 554.429688 52.613281 535.558594 22.179688 527.035156 19.132813 L 521.558594 18.246094 L 521.558594 13.722656 L 614.691406 13.722656 L 610.433594 23.394531 C 610.433594 23.394531 609.214844 41.050781 612.867188 47.742188 "/>
<g clip-path="url(#clip2)" clip-rule="nonzero">
<path style="fill:none;stroke-width:50;stroke-linecap:butt;stroke-linejoin:miter;stroke:rgb(13.299561%,11.799622%,12.199402%);stroke-opacity:1;stroke-miterlimit:10;" d="M 4896.367188 3753.428125 L 6317.382813 3755.498437 C 6317.382813 3755.498437 6177.382813 3534.13125 6207.8125 3394.13125 L 6609.570313 2377.56875 L 7072.1875 3454.990625 C 7072.1875 3454.990625 7072.1875 3648.701562 6883.476563 3764.365625 L 8228.789063 3762.25625 C 8228.789063 3762.25625 7937.929688 3528.0375 7869.648438 3424.560937 L 6749.570313 977.490625 L 6700.195313 886.1625 C 6700.195313 886.1625 6594.726563 837.451562 6562.578125 916.592187 L 6518.242188 984.053125 C 6518.242188 984.053125 5471.25 3266.31875 5398.203125 3363.6625 C 5398.203125 3363.6625 5045.859375 3698.779687 4896.367188 3753.428125 Z M 4896.367188 3753.428125 " transform="matrix(0.1,0,0,-0.1,0,380.46)"/>
</g>
<path style=" stroke:none;fill-rule:nonzero;fill:rgb(14.498901%,12.89978%,13.299561%);fill-opacity:1;" d="M 411.085938 349.980469 C 411.085938 351.945313 409.488281 353.539063 407.523438 353.539063 C 405.558594 353.539063 403.964844 351.945313 403.964844 349.980469 C 403.964844 348.015625 405.558594 346.417969 407.523438 346.417969 C 409.488281 346.417969 411.085938 348.015625 411.085938 349.980469 "/>
<path style=" stroke:none;fill-rule:nonzero;fill:rgb(14.498901%,12.89978%,13.299561%);fill-opacity:1;" d="M 714.585938 358.097656 C 714.585938 361.296875 711.992188 363.894531 708.792969 363.894531 C 705.589844 363.894531 702.996094 361.296875 702.996094 358.097656 C 702.996094 354.898438 705.589844 352.300781 708.792969 352.300781 C 711.992188 352.300781 714.585938 354.898438 714.585938 358.097656 "/>
<path style=" stroke:none;fill-rule:nonzero;fill:rgb(14.498901%,12.89978%,13.299561%);fill-opacity:1;" d="M 503.417969 336.75 L 514.296875 336.75 L 523.421875 360.613281 L 534.652344 336.75 L 542.726563 336.75 L 524.824219 379.917969 L 523.070313 379.917969 "/>
<path style=" stroke:none;fill-rule:nonzero;fill:rgb(14.498901%,12.89978%,13.299561%);fill-opacity:1;" d="M 633.972656 379.917969 L 633.972656 336.75 L 642.394531 336.75 L 642.394531 371.84375 L 657.835938 371.84375 L 666.261719 379.917969 "/>
<path style=" stroke:none;fill-rule:nonzero;fill:rgb(14.498901%,12.89978%,13.299561%);fill-opacity:1;" d="M 94.089844 376.292969 L 94.089844 361.648438 L 87.8125 354.675781 L 94.089844 354.675781 L 94.089844 335.144531 L 129.3125 335.144531 L 129.3125 351.882813 C 129.3125 351.882813 127.566406 360.253906 121.988281 361.300781 L 131.054688 378.039063 L 120.941406 378.039063 L 107.691406 355.023438 L 116.058594 355.023438 C 116.058594 355.023438 119.894531 353.976563 120.246094 351.535156 L 120.941406 342.816406 L 103.15625 342.816406 L 103.15625 378.039063 L 93.742188 378.039063 "/>
<g clip-path="url(#clip3)" clip-rule="nonzero">
<path style=" stroke:none;fill-rule:nonzero;fill:rgb(14.498901%,12.89978%,13.299561%);fill-opacity:1;" d="M 761.820313 378.679688 L 761.820313 363.730469 L 755.414063 356.613281 L 761.820313 356.613281 L 761.820313 336.679688 L 797.773438 336.679688 L 797.773438 353.761719 C 797.773438 353.761719 795.992188 362.308594 790.296875 363.375 L 799.550781 380.460938 L 789.226563 380.460938 L 775.703125 356.96875 L 784.246094 356.96875 C 784.246094 356.96875 788.160156 355.898438 788.515625 353.40625 L 789.226563 344.507813 L 771.074219 344.507813 L 771.074219 380.460938 L 761.464844 380.460938 "/>
</g>
<path style=" stroke:none;fill-rule:nonzero;fill:rgb(14.498901%,12.89978%,13.299561%);fill-opacity:1;" d="M 331.597656 378.820313 L 341.195313 378.820313 L 320.027344 333.402344 L 299.59375 378.820313 L 309.6875 378.820313 L 311.65625 371.898438 L 325.933594 372 L 322.980469 364.546875 L 314.363281 364.269531 L 320.394531 349.992188 "/>
<path style=" stroke:none;fill-rule:nonzero;fill:rgb(14.498901%,12.89978%,13.299561%);fill-opacity:1;" d="M 594.949219 379.558594 L 604.695313 379.558594 L 583.203125 333.457031 L 562.464844 379.558594 L 572.710938 379.558594 L 574.710938 372.535156 L 589.203125 372.636719 L 586.203125 365.074219 L 577.457031 364.789063 L 583.578125 350.292969 "/>
<path style=" stroke:none;fill-rule:nonzero;fill:rgb(14.498901%,12.89978%,13.299561%);fill-opacity:1;" d="M 48.613281 378.820313 L 58.210938 378.820313 L 37.042969 333.402344 L 16.609375 378.820313 L 26.703125 378.820313 L 28.671875 371.898438 L 42.949219 372 L 39.996094 364.546875 L 31.378906 364.269531 L 37.410156 349.992188 "/>
<path style=" stroke:none;fill-rule:nonzero;fill:rgb(14.498901%,12.89978%,13.299561%);fill-opacity:1;" d="M 435.089844 360.949219 L 440.054688 360.949219 L 440.054688 351.777344 L 452.089844 351.777344 L 450.367188 347.386719 L 440.4375 347.386719 L 440.4375 340.320313 L 453.996094 340.320313 L 451.703125 336.425781 L 435.089844 336.425781 L 435.089844 347.003906 L 430.503906 347.386719 L 435.089844 351.589844 "/>
<path style=" stroke:none;fill-rule:nonzero;fill:rgb(14.498901%,12.89978%,13.299561%);fill-opacity:1;" d="M 397.859375 378.921875 L 397.859375 373.554688 L 461.460938 373.554688 L 464.136719 378.921875 Z M 397.859375 378.921875 "/>
<path style=" stroke:none;fill-rule:nonzero;fill:rgb(14.498901%,12.89978%,13.299561%);fill-opacity:1;" d="M 171.269531 378.261719 L 199.367188 378.261719 L 199.367188 369.890625 L 179.636719 369.890625 L 179.636719 360.921875 L 195.78125 360.921875 L 195.78125 351.953125 L 179.621094 351.953125 L 179.636719 342.984375 L 196.976563 342.984375 C 196.976563 342.984375 199.964844 341.789063 199.367188 335.214844 L 171.269531 335.214844 L 171.269531 350.757813 L 164.09375 350.757813 L 171.269531 359.726563 "/>
<path style=" stroke:none;fill-rule:nonzero;fill:rgb(14.498901%,12.89978%,13.299561%);fill-opacity:1;" d="M 233.042969 378.039063 L 241 378.039063 L 241 351.269531 L 264.832031 378.886719 L 269.894531 378.886719 L 269.894531 336.605469 L 260.644531 336.605469 L 260.882813 360.660156 L 238.484375 337.449219 L 233.042969 337.304688 "/>
</g>
</svg>
