<svg width="150" height="150" viewBox="0 0 150 150" fill="none" xmlns="http://www.w3.org/2000/svg">
<path d="M23.274 9.24657H84.4577C88.5131 9.30569 92.3922 10.9018 95.2721 13.6802L133.71 52.341C137.119 55.7696 139 60.3805 139 65.1688V123.219L119.605 103.534V54.1735L100.209 34.0746L75.0539 60.4397L23.274 9.24657Z" fill="#C28F2C"/>
<path d="M129.356 140.753H65.5852C61.5222 140.694 57.6359 139.045 54.7506 136.158L16.2995 96.6812C12.8843 93.146 11 88.3735 11 83.4831V24.1507L31.4326 44.4781V94.9725L50.8642 115.712V63.9806L75.1832 87.7843L99.9143 63.9806V110.999L129.356 140.753Z" fill="#C28F2C"/>
<path d="M108.315 9.24657L139 39.9315V9.24657H108.315Z" fill="#C28F2C"/>
<path d="M41.6849 140.753L11 110.069V140.753H41.6849Z" fill="#C28F2C"/>
</svg>
