<svg width="150" height="150" viewBox="0 0 150 150" fill="none" xmlns="http://www.w3.org/2000/svg">
<path d="M141.918 41.2367C141.918 41.2367 141.715 41.0391 141.511 41.0391H87.27L86.4543 41.2367L76.6673 50.2629C76.463 50.4606 76.463 50.8625 76.6673 51.2644C76.7727 51.3791 76.9179 51.4508 77.0744 51.4653H120.507L122.956 54.4729C123.158 54.6722 123.567 54.8732 123.77 54.6722L141.513 42.2415C141.92 42.2415 142.124 41.6386 141.92 41.2367H141.918ZM117.857 96.9817C105.826 96.5814 95.6299 87.3576 94.8141 75.1244C94.6115 73.7228 94.6115 72.1185 94.4071 70.5125C94.4071 66.7044 94.8141 62.4927 95.4272 58.683C95.4272 58.482 95.4272 58.2827 95.2228 58.0818C95.0185 57.8808 94.8141 57.8808 94.6115 57.8808H76.2586C76.056 57.8808 75.6473 58.0818 75.6473 58.2827C74.0158 62.8946 73.4028 67.7058 73.4028 72.5187C73.4028 76.1292 74.0158 79.738 75.4429 82.9449C78.9101 93.5738 92.1643 104 102.767 104C118.877 104 122.549 98.3866 122.75 96.5814C122.75 96.5814 122.549 96.3805 121.936 96.3805C120.508 96.7823 119.284 96.9817 117.857 96.9817ZM72.9958 41.0391H25.4864C23.6507 40.8365 21.6122 41.4393 19.9808 42.4408C18.145 44.0451 17.3309 46.6524 17.5353 49.0589V50.6632C17.5353 51.2644 17.738 51.4653 18.145 51.6646H54.849L59.7416 56.0772C59.9459 56.2765 59.9459 56.2765 60.1503 56.2765C60.3546 56.2765 60.5573 56.2765 60.5573 56.0772L73.4045 42.2415C73.6088 42.0405 73.6088 41.8396 73.6088 41.4393C73.4045 41.2384 73.2001 41.0374 72.9958 41.0374V41.0391ZM43.8376 57.8808L43.2246 57.6815H22.0192C21.6105 57.6815 21.4062 58.0818 21.4062 58.2827C21.4062 58.482 21.4062 58.482 21.6105 58.683C21.6105 58.683 49.9546 91.1673 50.7704 91.9695V92.1704L50.566 92.3697H33.8446C31.3991 92.3697 28.952 91.7685 27.1162 90.3652C26.3386 89.801 25.6515 89.1253 25.0777 88.3607C24.8734 88.1597 24.8734 88.1597 24.669 88.1597C24.4647 88.1597 24.262 88.1597 24.0577 88.3607L8.15201 102.798C7.94933 102.999 7.94933 103.399 8.15201 103.799C8.35635 104 8.35635 104 8.5607 104H67.2857C70.753 104 72.9974 100.19 72.9974 96.9833C72.9974 95.5783 72.5887 94.3759 71.773 93.1719C69.7346 89.9633 43.8376 57.8808 43.8376 57.8808Z" fill="#C4CACE"/>
<path d="M78.6371 45.1996L85.0877 39.118L86.5004 38.7135H101.823V37.6979C101.823 36.4826 102.025 35.2673 102.629 34.2535C104.242 31.4166 111.904 26.5521 115.936 24.3229C118.556 22.9045 120.976 21.6875 123.598 20.6753C123.798 20.6753 124 20.2691 124 20.066C124 19.6615 123.798 19.4583 123.396 19.2569L100.814 15H100.412L78.8392 23.5121C78.6371 23.7153 78.4351 23.9184 78.4351 24.1198L78.6371 45.1979V45.1996ZM94.362 55.5347C94.7661 55.5347 95.571 55.5347 96.3792 56.3454C97.1857 57.1562 97.1857 58.1684 97.1857 58.3715V58.7777C96.5812 63.0329 96.1771 66.8853 96.1771 70.3298C96.1771 71.1405 96.3792 71.9513 96.3792 72.5589C96.3792 73.3697 96.3792 73.9774 96.5812 74.585V74.7881C96.9837 79.6527 98.7988 84.111 101.823 87.5572V53.3055H78.6371V55.5347H94.362ZM84.8874 99.3124C82.4678 97.4877 80.4506 95.2586 78.6371 93.0294V133.765C78.6371 134.172 80.0482 133.969 80.2502 133.765C101.621 119.173 101.621 109.851 101.621 109.851V106.203C96.3792 106.203 90.331 103.771 84.8874 99.3107V99.3124ZM62.1041 57.1562C61.7016 57.7638 61.0972 58.3715 59.8865 58.3715C59.08 58.3715 58.4755 58.1684 58.0714 57.5607L53.8384 53.71H46.1771V57.1562C48.9992 60.8038 62.5065 78.0312 69.3629 86.9478V49.0486L62.1041 57.1562ZM67.3457 106.203H46.1771V109.851C46.1771 109.851 46.3792 118.97 67.5477 133.765C67.9518 133.969 69.1608 134.172 69.1608 133.765V105.798C68.7584 106.205 67.9518 106.205 67.3457 106.205V106.203ZM24.4024 20.4722C27.0241 21.6875 29.6441 22.9028 32.0637 24.1198C36.0963 26.3506 43.7559 31.2135 45.3706 34.052C45.9751 35.0642 46.1771 36.2812 46.1771 37.4982V38.5104H69.5649V24.1198C69.5649 23.9184 69.3629 23.5121 69.1608 23.5121L47.5882 15H47.1841L24.6061 19.2569C24.202 19.2569 24 19.6615 24 20.066C24 20.066 24.202 20.4722 24.4041 20.4722H24.4024Z" fill="#36AEEA"/>
</svg>
