<svg width="150" height="150" viewBox="0 0 150 150" fill="none" xmlns="http://www.w3.org/2000/svg">
<path d="M141.918 41.2367C141.918 41.2367 141.715 41.0391 141.511 41.0391H87.27L86.4543 41.2367L76.6673 50.2629C76.463 50.4606 76.463 50.8625 76.6673 51.2644C76.7727 51.3791 76.9179 51.4508 77.0744 51.4653H120.507L122.956 54.4729C123.158 54.6722 123.567 54.8732 123.77 54.6722L141.513 42.2415C141.92 42.2415 142.124 41.6386 141.92 41.2367H141.918ZM117.857 96.9817C105.826 96.5814 95.6299 87.3576 94.8141 75.1244C94.6115 73.7228 94.6115 72.1185 94.4071 70.5125C94.4071 66.7044 94.8141 62.4927 95.4272 58.683C95.4272 58.482 95.4272 58.2827 95.2228 58.0818C95.0185 57.8808 94.8141 57.8808 94.6115 57.8808H76.2586C76.056 57.8808 75.6473 58.0818 75.6473 58.2827C74.0158 62.8946 73.4028 67.7058 73.4028 72.5187C73.4028 76.1292 74.0158 79.738 75.4429 82.9449C78.9101 93.5738 92.1643 104 102.767 104C118.877 104 122.549 98.3866 122.75 96.5814C122.75 96.5814 122.549 96.3805 121.936 96.3805C120.508 96.7823 119.284 96.9817 117.857 96.9817ZM72.9958 41.0391H25.4864C23.6507 40.8365 21.6122 41.4393 19.9808 42.4408C18.145 44.0451 17.3309 46.6524 17.5353 49.0589V50.6632C17.5353 51.2644 17.738 51.4653 18.145 51.6646H54.849L59.7416 56.0772C59.9459 56.2765 59.9459 56.2765 60.1503 56.2765C60.3546 56.2765 60.5573 56.2765 60.5573 56.0772L73.4045 42.2415C73.6088 42.0405 73.6088 41.8396 73.6088 41.4393C73.4045 41.2384 73.2001 41.0374 72.9958 41.0374V41.0391ZM43.8376 57.8808L43.2246 57.6815H22.0192C21.6105 57.6815 21.4062 58.0818 21.4062 58.2827C21.4062 58.482 21.4062 58.482 21.6105 58.683C21.6105 58.683 49.9546 91.1673 50.7704 91.9695V92.1704L50.566 92.3697H33.8446C31.3991 92.3697 28.952 91.7685 27.1162 90.3652C26.3386 89.801 25.6515 89.1253 25.0777 88.3607C24.8734 88.1597 24.8734 88.1597 24.669 88.1597C24.4647 88.1597 24.262 88.1597 24.0577 88.3607L8.15201 102.798C7.94933 102.999 7.94933 103.399 8.15201 103.799C8.35635 104 8.35635 104 8.5607 104H67.2857C70.753 104 72.9974 100.19 72.9974 96.9833C72.9974 95.5783 72.5887 94.3759 71.773 93.1719C69.7346 89.9633 43.8376 57.8808 43.8376 57.8808Z" fill="#C4CACE"/>
</svg>
